<svg xmlns="http://www.w3.org/2000/svg" viewBox="0 0 521.65 163.67"><defs><style>.cls-1,.cls-2{fill:#005faf;}.cls-1{stroke:#005faf;}</style></defs><title>bca</title><g id="Layer_2" data-name="Layer 2"><g id="Layer_1-2" data-name="Layer 1"><path class="cls-1" d="M282.9,77.91c33-14.95,37.85-63.75-9-63.75h-54.3L199.48,53.51h9.44l-24,94.05h63c45.94.39,66.59-53.69,35-69.65Zm-35,35.42H232.14L238,92.08h15C270.7,95.62,259.69,114.11,247.88,113.33Zm9.45-45.26H244l3.93-18.49h14.95c14.45,3.54,2,19.28-5.5,18.49Z"/><path class="cls-1" d="M411.82,64.42,432.43,28,404.54,13.47,400.9,18c-15-8-93.85,3-98.79,80.77,2.95,65.21,76,53.48,83.19,49.34l20.1-41.54c-19.69,13-60,19.19-61.69-19.76,3.53-32.11,41.45-44.1,68.11-22.35ZM514.69,14.16H451.31L431.17,52.33h10.35l-47.76,95.23H440l9.49-23h28.38l.7,23h42.56ZM462.34,93.67l15.52-37.05.7,37.05Z"/><path class="cls-2" d="M118.91,141.19l2.46-.71-2.7-3.73Zm-40.42-.63L78,143.89c1.23-.12,2.74.94,3.34-1.43,0-1.84-1.45-1.94-2.86-1.9Zm19.61-.08c-.2-.91-1-1.58-2.86-.95l.64,3.41c1.56-.35,2.36-1.27,2.22-2.46Zm-44.31-2.8-.76,3c1.22.05,2.65,1,3.46-.76,0-1.13.1-2.25-2.7-2.28Zm42.65,7.8L97,149c1.3,0,2.49-.75,2.15-2.39S97.48,145.27,96.44,145.48Z"/><path class="cls-2" d="M148.08,16C106-5.46,55.81-4.87,15.74,15c-20.66,36.37-21.32,87.25,0,132.32,44.14,22.34,93,20.87,132.65.94C167,110,170.12,64,148.08,16Zm-71,108.6-2.49,0c-.62-6.89-2.27-12.68-5.8-17.11C52.58,87.17,19.47,102.46,28,68,32.4,50.3,82.85,39.9,77.06,124.56ZM28,90.47c3.53,7.2,25.69,8.38,33.38,13.89,12.2,8.74,10.45,20.23,10.45,20.23H69C63.33,107.23,47.43,121,34.7,116.3,26.7,113.46,20.9,101.13,28,90.47Zm40.36,56.6,1.19-9.45,2.15.16-1,10.4c-1,4.58-7.79,4-8.65-.4L63.24,137l2.54.39-1.11,9.05C64.81,149.43,67.82,149.25,68.4,147.07ZM57,149.65l-2.44-.59c.29-2,2.68-6.13-2-6.13l-1.32,5.37-2.7-.5,2.87-12.9c7,.77,7.61,2.71,7.75,4.81-.27,1.62-.71,2.75-2.11,3,1.64,1.48,0,4.6,0,6.91ZM41.47,135.21a16.18,16.18,0,0,0-2.22,6.5c-.2,2.64,2.33,2.08,3,1.78s.89-2.37.89-2.37l-1.78-.59.59-1.77,4,1.33L44,146.74l-1.63-.44.15-1c-2,.91-5.64.23-6.06-2.07-.43-1.84.86-7.44,2.95-10.05s7-.06,7.1,1.48a9.26,9.26,0,0,1-.49,3.25l-1.86-.35s.12-.55.28-1.42-2.24-1.85-3-.89ZM77.77,146l-.47,5.72-2-.08L76,138.1c5,.1,7.79.79,7.7,4.29-.3,4.78-4.17,3.7-6,3.65Zm4.94-21.45H79.39c-.29-11.76,2-33.27-4.21-49.1C70.5,63.49,58.65,58.09,56,48.4c-4.16-15.34,2.91-31.94,26.68-33.22,20.61,2.11,26.94,18,23.43,32.83-6,14.81-12.09,12.69-19.62,27.44-6.14,15.81-3.8,36.53-3.81,49.14Zm36.83,21.76-2.3.8-.72-13.66,2.7-.71,6.68,11.27-1.83,1.19-2.23-3.17-2.54,1,.24,3.33ZM92.68,124.59H90c2.19-30.2,40.14-23.64,43.61-34.12,6,10.39,3.84,19.15-2.42,23.64-15.57,11.17-30.49-8.26-38.53,10.48Zm14.08,15.25,1.19,6.28c.74,1.44,1.24,1.18,2.38,1,1.32-1,1-1.88.8-3.1l2.3-.31c.6,4.54-1.56,5-3.18,5.32-3.46.24-4.14-.43-5.08-4.93-.55-3.85-1.49-7.91,1.75-8.65,5.31-.81,5,1.58,5.48,3.25l-2.31.4c-.36-1.44-.89-2-2.06-1.9a2.11,2.11,0,0,0-1.27,2.61Zm-4.85,6.51c.11,2-.56,3.3-1.82,3.74l-5.4,1.11-2.15-13.1c1.11-.18,6.54-2.17,7.86,1.43a3.56,3.56,0,0,1-.79,4,3.56,3.56,0,0,1,2.3,2.85ZM88.05,80.6c12-33.87,39.56-27.88,45.66-12.65,8.37,30.57-18.57,22.19-35.82,34.72-6.52,5.67-10,12.18-10,22h-3C84.75,104.85,84.43,90.78,88.05,80.6Z"/></g></g></svg>