<svg xmlns="http://www.w3.org/2000/svg" viewBox="0 0 518.02 150.07"><defs><style>.cls-1{fill:#e94d11;}.cls-1,.cls-2{fill-rule:evenodd;}.cls-2{fill:#006383;}.cls-3{fill:none;}</style></defs><title>bni</title><g id="Layer_2" data-name="Layer 2"><g id="Layer_1-2" data-name="Layer 1"><path class="cls-1" d="M57.1,95.84,72.21,83.63c-2.5-3.16-4.89-6.42-7.17-9.71C47.49,48.6,37.15,22.8,44.64,0H0V24.62Z"/><path class="cls-1" d="M81,59c.94-8,3.36-23.2,18.11-34.44A42.47,42.47,0,0,1,142,19V0H63.2C58,23.12,71.68,48.51,81,59Z"/><path class="cls-1" d="M100.08,35.88l0,0c-14.82,12-11.17,30.93,2.6,47.89,10.65,13.12,24.88,22.3,39.38,15.34V43.28C129,30,113.36,25.09,100.08,35.88Z"/><path class="cls-1" d="M0,53.75V142H0l43-34.75Z"/><path class="cls-1" d="M78.13,90.65c-4.19,3.47-9.42,7.74-15.23,12.43l5.58,7c8.09,10.1,19.88,27.56,34.52,22.83l.54.67L93.15,142H142V108.4C116.87,122.08,95.27,109.63,78.13,90.65Z"/><path class="cls-1" d="M54.55,121.67l-5.78-7.19C36.94,124,24.45,134,14.35,142H69C65.48,134.46,59,127.24,54.55,121.67Z"/><path class="cls-2" d="M260.32,59.34c13.07-2.29,21.57-13.61,21.57-28.06C281.89,12.09,265.28,0,236.8,0H180.47V.64C192,7,191.71,17.15,191.71,26.85v88.06c0,9.92.26,20.21-11.24,26.41V142h27.12c26.51,0,46.81.46,62-6.68,16.11-7.57,25.9-21.15,25.9-37.75C295.49,76.38,279.73,63.44,260.32,59.34ZM213.81,13.08l17.81.31c13.22,0,26.75,6.46,26.75,21.36,0,17.68-12,22.43-29,22.43l-15.55,0ZM231,127.36l-17.18,0V70.62l18.46-.07c21.51,0,39.26,8,39.26,28.92C271.53,120,252.9,127.36,231,127.36Z"/><rect id="SVGID" class="cls-3" x="311.47" y="0.05" width="138.14" height="150.02"/><path class="cls-2" d="M338.66,114.94c0,12.09-.21,20.72,11.22,27.41V143H311.69v-.64c11.45-6.69,11.25-15.32,11.25-27.41V28.67c0-12.08.2-21.55-11.23-28V0h31.7V.22a17.64,17.64,0,0,0,3.24,5.39c1,1.38,3,4.31,3,4.31l72.7,98V27.84c0-12.09.22-20.72-11.23-27.2V0h38V.64C437.9,7.12,437.9,15.75,437.9,27.84V150c-6.91-2.75-26.26-18.83-40-37.35-24.68-33.21-59.21-79.33-59.21-79.33Z"/><path class="cls-2" d="M484.52,25.72c0-9.92-.15-18.75-11.18-25.08V0H518V.64C507,6.79,506.86,16,506.86,25.72v90.77c0,9.69-.25,19.48,11.16,25.83V143H473.34v-.64c11.48-6.42,11.18-16.06,11.18-25.77Z"/></g></g></svg>