<svg xmlns="http://www.w3.org/2000/svg" xmlns:xlink="http://www.w3.org/1999/xlink" viewBox="0 0 504.7 152.31"><defs><style>.cls-1{fill:none;}.cls-2{fill:#005093;fill-rule:evenodd;}.cls-3{clip-path:url(#clip-path);}.cls-4{clip-path:url(#clip-path-2);}</style><clipPath id="clip-path"><rect id="SVGID" class="cls-1" x="4.65" y="117.85" width="419.22" height="34.48"/></clipPath><clipPath id="clip-path-2"><rect id="SVGID-2" data-name="SVGID" class="cls-1" x="379.59" y="28.35" width="125.11" height="48.99"/></clipPath></defs><title>bri</title><g id="Layer_2" data-name="Layer 2"><g id="Layer_1-2" data-name="Layer 1"><g id="surface1"><path class="cls-2" d="M17.66,0H96.08c9.72,0,17.67,7.26,17.67,16.13v73c0,8.87-8,16.12-17.67,16.12H17.66C8,105.29,0,98,0,89.17v-73C0,7.26,8,0,17.66,0Zm1.9,7.49H33.47a21.74,21.74,0,0,1,9,7C45,17.93,46.15,21.79,45.38,25c0,.09-.07.24-.14.45-1.92,6.29-8.46,12.07-15.12,18-1.92,1.7-3.85,3.4-5.76,5.2l-3.93,3.69,4,3.63h0c1.89,1.77,3.8,3.46,5.7,5.14C36.78,66.94,43.32,72.72,45.24,79c.07.22.12.37.14.46C46.15,82.68,45,86.53,42.5,90A21.94,21.94,0,0,1,31.15,97.8H19.56a7.08,7.08,0,0,1-7-7.07V14.57a7.09,7.09,0,0,1,7-7.08Zm31.5,0h14a21.64,21.64,0,0,1,9,7C76.66,17.93,77.78,21.79,77,25c0,.09-.07.24-.13.45C75,31.74,68.4,37.52,61.74,43.4c-1.92,1.7-3.85,3.4-5.76,5.2l-3.84,3.6L56,55.84,98.41,96.38a7,7,0,0,1-4.22,1.42H50.35c.57-.65,1.11-1.31,1.61-2,4.24-5.74,6-12.54,4.53-18.59-.1-.39-.18-.73-.26-1-2.77-9-10.42-15.81-18.21-22.68l-1.49-1.32L38,50.92C45.81,44,53.46,37.28,56.23,28.23c.08-.27.16-.6.26-1,1.47-6-.29-12.85-4.53-18.6C51.67,8.25,51.37,7.87,51.06,7.49Zm31.62,0H94.19a7.08,7.08,0,0,1,7,7.08V84L68.05,52.32l1.59-1.4C77.43,44,85.08,37.28,87.84,28.23q.12-.4.27-1c1.47-6-.29-12.85-4.54-18.6C83.29,8.25,83,7.87,82.68,7.49Z"/><g class="cls-3"><path class="cls-2" d="M5,144.79h2.5V122.9h.07l9.49,21.89h2.13l9.2-21.89h.07v21.89H31V120.5H27.41l-9.26,21.37L8.91,120.5H5ZM49.36,142a6.81,6.81,0,0,1-1,.49c-.41.15-.85.29-1.33.42s-1,.23-1.45.3a9.67,9.67,0,0,1-1.36.11,6.2,6.2,0,0,1-2.63-.53,5.3,5.3,0,0,1-1.91-1.45,6.4,6.4,0,0,1-1.15-2.16,8.71,8.71,0,0,1-.4-2.65H50.73v-1.11a13.23,13.23,0,0,0-.42-3.39,8.19,8.19,0,0,0-1.3-2.8,6.15,6.15,0,0,0-2.28-1.91,8.07,8.07,0,0,0-6.53,0,7.11,7.11,0,0,0-2.46,1.93,8.74,8.74,0,0,0-1.58,2.94,12,12,0,0,0-.56,3.74,13.55,13.55,0,0,0,.45,3.7,8.18,8.18,0,0,0,1.45,2.94,6.57,6.57,0,0,0,2.6,1.95,9.85,9.85,0,0,0,3.9.7,16.05,16.05,0,0,0,1.79-.11,18.62,18.62,0,0,0,1.84-.33,14,14,0,0,0,1.73-.53Zm-11.27-7.34a6.65,6.65,0,0,1,.38-2.2,6.81,6.81,0,0,1,1.08-2,5.52,5.52,0,0,1,1.71-1.44,4.7,4.7,0,0,1,2.27-.54,4.23,4.23,0,0,1,2.17.52,4.41,4.41,0,0,1,1.46,1.39,6.47,6.47,0,0,1,.82,2,9.93,9.93,0,0,1,.25,2.27Zm17,10.12h2.29v-26.1H55.07Zm18.65,0H76c0-.4-.1-.8-.12-1.18s0-.8,0-1.21,0-.86,0-1.33v-7.83a8.88,8.88,0,0,0-.66-3.77A4.31,4.31,0,0,0,73,127.31a8.45,8.45,0,0,0-3.71-.68,11,11,0,0,0-1.34.09c-.47.07-1,.16-1.45.27s-1,.24-1.42.38a10.42,10.42,0,0,0-1.22.47V130a9.52,9.52,0,0,1,2.64-1.13,11.22,11.22,0,0,1,2.79-.33,5.12,5.12,0,0,1,2.46.5,3,3,0,0,1,1.34,1.52,6.54,6.54,0,0,1,.4,2.54v.9h-.43c-.8,0-1.64,0-2.5.05s-1.73.12-2.57.24a13.92,13.92,0,0,0-2.41.59,7,7,0,0,0-2,1.09,4.69,4.69,0,0,0-1.38,1.73,5.74,5.74,0,0,0-.51,2.53,5,5,0,0,0,.13,1.14,4.82,4.82,0,0,0,.5,1.31,4.48,4.48,0,0,0,1,1.26,5.24,5.24,0,0,0,1.76.94,8.84,8.84,0,0,0,2.65.36,7.46,7.46,0,0,0,1.74-.21,7.17,7.17,0,0,0,1.67-.63,6.07,6.07,0,0,0,1.44-1,4.94,4.94,0,0,0,1-1.41h.07Zm-.22-7.86c0,.39,0,.86,0,1.39a7.53,7.53,0,0,1-.33,1.69,5,5,0,0,1-.84,1.62,4.18,4.18,0,0,1-1.62,1.22,6.5,6.5,0,0,1-2.63.48,5.34,5.34,0,0,1-1.92-.31,2.86,2.86,0,0,1-1.38-1,3.07,3.07,0,0,1-.53-1.87,3.52,3.52,0,0,1,.52-1.95,3.72,3.72,0,0,1,1.39-1.24,7.66,7.66,0,0,1,2-.71,17,17,0,0,1,2.34-.31c.81,0,1.61-.08,2.41-.07h.65ZM81.18,127h-2.5l6.55,18-.47,1.57a15.6,15.6,0,0,1-.75,2,3.62,3.62,0,0,1-1,1.34,2.38,2.38,0,0,1-1.57.49,5.38,5.38,0,0,1-1-.08c-.26-.06-.49-.12-.7-.19L79.51,152a11.29,11.29,0,0,0,1.21.21,10.48,10.48,0,0,0,1.25.07,3.66,3.66,0,0,0,1.71-.41,4.57,4.57,0,0,0,1.3-1.11,7.68,7.68,0,0,0,1-1.56,18.77,18.77,0,0,0,.75-1.79L94.1,127H91.71l-5.32,14.8h0Zm26.72,17.75h2.24c-.06-.4-.1-.8-.13-1.18s0-.8,0-1.21,0-.86,0-1.33v-7.83a9,9,0,0,0-.66-3.77,4.39,4.39,0,0,0-2.11-2.16,8.45,8.45,0,0,0-3.71-.68,10.89,10.89,0,0,0-1.34.09c-.48.07-1,.16-1.45.27s-1,.24-1.43.38a10.23,10.23,0,0,0-1.21.47V130a9.4,9.4,0,0,1,2.64-1.13,11.22,11.22,0,0,1,2.79-.33,5,5,0,0,1,2.45.5,3,3,0,0,1,1.35,1.52,6.74,6.74,0,0,1,.4,2.54v.9h-.44c-.8,0-1.63,0-2.49.05s-1.73.12-2.57.24a13.7,13.7,0,0,0-2.41.59,7.21,7.21,0,0,0-2,1.09,4.77,4.77,0,0,0-1.37,1.73,5.74,5.74,0,0,0-.51,2.53,4.91,4.91,0,0,0,.12,1.14,4.55,4.55,0,0,0,.51,1.31,4.31,4.31,0,0,0,1,1.26,5.14,5.14,0,0,0,1.76.94,8.79,8.79,0,0,0,2.65.36,7.52,7.52,0,0,0,1.74-.21,7.17,7.17,0,0,0,1.67-.63,6.07,6.07,0,0,0,1.44-1,5.14,5.14,0,0,0,1-1.41h.07Zm-.22-7.86c0,.39,0,.86-.05,1.39a8.13,8.13,0,0,1-.33,1.69,5,5,0,0,1-.84,1.62,4.26,4.26,0,0,1-1.62,1.22,6.54,6.54,0,0,1-2.63.48,5.43,5.43,0,0,1-1.93-.31,2.83,2.83,0,0,1-1.37-1,3.07,3.07,0,0,1-.53-1.87,3.6,3.6,0,0,1,.51-1.95,3.88,3.88,0,0,1,1.39-1.24,7.87,7.87,0,0,1,2-.71,17,17,0,0,1,2.33-.31c.82,0,1.62-.08,2.42-.07h.65Zm7.71,7.86h2.28V135a9.32,9.32,0,0,1,.17-1.81,8.09,8.09,0,0,1,.55-1.75,5.67,5.67,0,0,1,1-1.49,4.59,4.59,0,0,1,1.55-1,5.76,5.76,0,0,1,2.17-.38,4.33,4.33,0,0,1,2.53.68,3.83,3.83,0,0,1,1.42,1.9,8.79,8.79,0,0,1,.43,2.91v10.79h2.28V133.45a10.06,10.06,0,0,0-.34-2.71,5.94,5.94,0,0,0-1.1-2.17,5,5,0,0,0-2-1.43,7.62,7.62,0,0,0-2.91-.51,7.91,7.91,0,0,0-2.44.33,5.31,5.31,0,0,0-1.7.85,5.54,5.54,0,0,0-1.12,1.16,8,8,0,0,0-.71,1.24h-.07V127h-2.21c.07.72.11,1.42.12,2.11s0,1.39,0,2.07Zm20.13,0h2.28V127h-2.28Zm2.28-25.41h-2.28v2.93h2.28Zm18.36,3.21h3.66a14.52,14.52,0,0,1,4,.5,8.76,8.76,0,0,1,3.26,1.66,7.63,7.63,0,0,1,2.19,3,12.14,12.14,0,0,1,.81,4.67,12,12,0,0,1-.84,4.74,7.81,7.81,0,0,1-2.39,3.18,10.25,10.25,0,0,1-3.73,1.77,19.85,19.85,0,0,1-4.88.55h-2.06Zm-2.5,22.2h4.42a25.19,25.19,0,0,0,4.72-.42,14.86,14.86,0,0,0,4-1.33,10.49,10.49,0,0,0,3.08-2.33,10,10,0,0,0,2-3.45,14.57,14.57,0,0,0,.7-4.65,15.79,15.79,0,0,0-.7-4.89,9.59,9.59,0,0,0-6.14-6.33,17.38,17.38,0,0,0-5.8-.89h-6.26ZM190.15,142a6.24,6.24,0,0,1-1,.49c-.41.15-.86.29-1.34.42a14.15,14.15,0,0,1-1.44.3,9.67,9.67,0,0,1-1.36.11,6.2,6.2,0,0,1-2.63-.53,5.3,5.3,0,0,1-1.91-1.45,6.4,6.4,0,0,1-1.15-2.16,8.71,8.71,0,0,1-.39-2.65h12.63v-1.11a13.23,13.23,0,0,0-.42-3.39,8.19,8.19,0,0,0-1.3-2.8,6.15,6.15,0,0,0-2.28-1.91,8.09,8.09,0,0,0-6.54,0,7.17,7.17,0,0,0-2.45,1.93,8.57,8.57,0,0,0-1.58,2.94,12,12,0,0,0-.56,3.74,13.55,13.55,0,0,0,.45,3.7,8.18,8.18,0,0,0,1.45,2.94,6.53,6.53,0,0,0,2.61,1.95,9.77,9.77,0,0,0,3.89.7,16.05,16.05,0,0,0,1.79-.11,18.62,18.62,0,0,0,1.84-.33,12.88,12.88,0,0,0,1.72-.53Zm-11.25-7.34a6.64,6.64,0,0,1,.37-2.2,6.81,6.81,0,0,1,1.08-2,5.52,5.52,0,0,1,1.71-1.44,4.7,4.7,0,0,1,2.27-.54,4.23,4.23,0,0,1,2.17.52,4.41,4.41,0,0,1,1.46,1.39,6.72,6.72,0,0,1,.82,2,9.93,9.93,0,0,1,.25,2.27Zm17,10.12h2.29V135a9.32,9.32,0,0,1,.17-1.81,7.58,7.58,0,0,1,.55-1.75,5.63,5.63,0,0,1,1-1.49,4.54,4.54,0,0,1,1.56-1,5.67,5.67,0,0,1,2.16-.38,4.36,4.36,0,0,1,2.54.68,3.81,3.81,0,0,1,1.41,1.9A8.54,8.54,0,0,1,208,134v10.79h2.29V133.45a9.66,9.66,0,0,0-.35-2.71,6.08,6.08,0,0,0-1.09-2.17,5,5,0,0,0-2-1.43,7.56,7.56,0,0,0-2.9-.51,8,8,0,0,0-2.45.33,5.25,5.25,0,0,0-1.69.85,5.87,5.87,0,0,0-1.13,1.16,8.86,8.86,0,0,0-.71,1.24h-.07V127h-2.21c.07.72.12,1.42.13,2.11s0,1.39,0,2.07Zm21.55-8.87a13.57,13.57,0,0,1,.15-2.1,9.48,9.48,0,0,1,.52-2,6.11,6.11,0,0,1,1-1.7,4.6,4.6,0,0,1,1.56-1.18,5.35,5.35,0,0,1,2.25-.43,5.6,5.6,0,0,1,2.61.55,4.45,4.45,0,0,1,1.68,1.54,7.13,7.13,0,0,1,.91,2.36,14.31,14.31,0,0,1,.26,3,10.19,10.19,0,0,1-.19,2,8.14,8.14,0,0,1-.59,1.89,6.05,6.05,0,0,1-1.07,1.6,4.77,4.77,0,0,1-1.59,1.12,5.42,5.42,0,0,1-2.17.41,4.88,4.88,0,0,1-2.47-.6,4.82,4.82,0,0,1-1.65-1.59,7.71,7.71,0,0,1-.92-2.24A11.41,11.41,0,0,1,217.42,135.92ZM230.63,127h-2.28v2h-.07a7,7,0,0,0-1.7-1.58,5.38,5.38,0,0,0-1.85-.69,10.83,10.83,0,0,0-2.21-.16,8.3,8.3,0,0,0-3.48.68,6.11,6.11,0,0,0-2.35,1.94,8.46,8.46,0,0,0-1.35,2.94,15.48,15.48,0,0,0-.42,3.73,12.74,12.74,0,0,0,.24,2.43,10.67,10.67,0,0,0,.8,2.39,7.39,7.39,0,0,0,1.45,2.06,6.48,6.48,0,0,0,2.22,1.45,8.21,8.21,0,0,0,3.07.54,6.76,6.76,0,0,0,2.23-.33,5.26,5.26,0,0,0,1.91-1.1,6.39,6.39,0,0,0,1.47-2.05h.08c0,1,0,2-.1,2.88a11.69,11.69,0,0,1-.46,2.5,5.51,5.51,0,0,1-1,2,4.58,4.58,0,0,1-1.86,1.3,7.93,7.93,0,0,1-2.91.46,11.76,11.76,0,0,1-2-.16,12.64,12.64,0,0,1-1.86-.46,9.76,9.76,0,0,1-1.59-.63l-.18,2.19c.31.1.75.22,1.32.37s1.21.28,1.93.39a16.93,16.93,0,0,0,2.32.18,10.6,10.6,0,0,0,4-.7,7,7,0,0,0,2.69-1.93,8.05,8.05,0,0,0,1.49-2.86,12.64,12.64,0,0,0,.45-3.49Zm16.11,17.75H249c-.06-.4-.11-.8-.13-1.18s0-.8-.05-1.21v-9.16a9,9,0,0,0-.67-3.77,4.33,4.33,0,0,0-2.1-2.16,8.48,8.48,0,0,0-3.71-.68,10.89,10.89,0,0,0-1.34.09c-.48.07-1,.16-1.46.27s-1,.24-1.42.38a10.23,10.23,0,0,0-1.21.47V130a9.47,9.47,0,0,1,2.63-1.13,11.35,11.35,0,0,1,2.8-.33,5,5,0,0,1,2.45.5,3,3,0,0,1,1.34,1.52,6.72,6.72,0,0,1,.41,2.54v.9h-.44c-.8,0-1.63,0-2.49.05s-1.73.12-2.58.24a13.92,13.92,0,0,0-2.41.59,7,7,0,0,0-2,1.09,4.77,4.77,0,0,0-1.37,1.73,5.88,5.88,0,0,0-.52,2.53,5.61,5.61,0,0,0,.13,1.14,4.82,4.82,0,0,0,.5,1.31,4.65,4.65,0,0,0,1,1.26,5.29,5.29,0,0,0,1.77.94,8.75,8.75,0,0,0,2.65.36,7.37,7.37,0,0,0,1.73-.21,7,7,0,0,0,1.67-.63,6.07,6.07,0,0,0,1.44-1,4.94,4.94,0,0,0,1-1.41h.07Zm-.21-7.86c0,.39,0,.86-.06,1.39a8.09,8.09,0,0,1-.32,1.69,5,5,0,0,1-.85,1.62,4.18,4.18,0,0,1-1.62,1.22,6.49,6.49,0,0,1-2.62.48,5.39,5.39,0,0,1-1.93-.31,2.86,2.86,0,0,1-1.38-1,3.21,3.21,0,0,1-.53-1.87,3.6,3.6,0,0,1,.52-1.95,3.72,3.72,0,0,1,1.39-1.24,7.6,7.6,0,0,1,2-.71,17,17,0,0,1,2.33-.31c.82,0,1.62-.08,2.41-.07h.66Zm7.71,7.86h2.28V135a9.32,9.32,0,0,1,.17-1.81,7.58,7.58,0,0,1,.55-1.75,5.63,5.63,0,0,1,1-1.49,4.54,4.54,0,0,1,1.56-1,5.71,5.71,0,0,1,2.16-.38,4.36,4.36,0,0,1,2.54.68,3.81,3.81,0,0,1,1.41,1.9,8.52,8.52,0,0,1,.44,2.91v10.79h2.28V133.45a9.66,9.66,0,0,0-.35-2.71,5.77,5.77,0,0,0-1.09-2.17,5,5,0,0,0-1.95-1.43,7.65,7.65,0,0,0-2.91-.51,7.87,7.87,0,0,0-2.44.33,5.31,5.31,0,0,0-1.7.85,5.54,5.54,0,0,0-1.12,1.16,9,9,0,0,0-.72,1.24h-.07V127h-2.21c.07.72.12,1.42.13,2.11s0,1.39,0,2.07Zm29.5-.62a14.63,14.63,0,0,0,2.44.73,16.88,16.88,0,0,0,3.29.31,11.81,11.81,0,0,0,2.36-.24,10.28,10.28,0,0,0,2.25-.76,7.38,7.38,0,0,0,1.89-1.32,5.87,5.87,0,0,0,1.3-1.93,6.82,6.82,0,0,0,.49-2.61,5.64,5.64,0,0,0-.5-2.35,6.21,6.21,0,0,0-1.31-1.83,10.76,10.76,0,0,0-1.86-1.45c-.68-.43-1.4-.83-2.12-1.2s-1.45-.74-2.14-1.11a15.38,15.38,0,0,1-1.85-1.13,5.25,5.25,0,0,1-1.31-1.31,3,3,0,0,1-.5-1.62,3.9,3.9,0,0,1,.49-2,3.65,3.65,0,0,1,1.27-1.29,5.73,5.73,0,0,1,1.75-.7,9.26,9.26,0,0,1,2-.21,13.73,13.73,0,0,1,1.7.11,10.94,10.94,0,0,1,1.59.29,7.15,7.15,0,0,1,1.31.51l.39-2.2a11.15,11.15,0,0,0-1.78-.48,16.78,16.78,0,0,0-1.73-.25c-.55,0-1-.07-1.45-.07a10.86,10.86,0,0,0-3.13.44,8.07,8.07,0,0,0-2.54,1.27,6,6,0,0,0-1.71,2,5.84,5.84,0,0,0-.62,2.64,4.78,4.78,0,0,0,.5,2.13,6,6,0,0,0,1.31,1.71,12.27,12.27,0,0,0,1.86,1.41c.68.42,1.39.83,2.13,1.21s1.44.76,2.13,1.14a15.49,15.49,0,0,1,1.85,1.18,5.73,5.73,0,0,1,1.32,1.33,3.05,3.05,0,0,1,.49,1.62,5.44,5.44,0,0,1-.45,2.23,4.15,4.15,0,0,1-1.22,1.55,5.21,5.21,0,0,1-1.81.9,8.26,8.26,0,0,1-2.21.29,12.17,12.17,0,0,1-3.11-.37A9.08,9.08,0,0,1,284,141.7ZM314.92,142a7.14,7.14,0,0,1-1,.49c-.42.15-.86.29-1.34.42s-1,.23-1.45.3a9.67,9.67,0,0,1-1.36.11,6.24,6.24,0,0,1-2.63-.53,5.39,5.39,0,0,1-1.91-1.45,6.4,6.4,0,0,1-1.15-2.16,8.71,8.71,0,0,1-.39-2.65h12.63v-1.11a13.69,13.69,0,0,0-.41-3.39,8.4,8.4,0,0,0-1.31-2.8,6.15,6.15,0,0,0-2.28-1.91,8.07,8.07,0,0,0-6.53,0,7.11,7.11,0,0,0-2.46,1.93,8.74,8.74,0,0,0-1.58,2.94,12,12,0,0,0-.56,3.74,13.55,13.55,0,0,0,.45,3.7,8,8,0,0,0,1.46,2.94,6.43,6.43,0,0,0,2.6,1.95,9.77,9.77,0,0,0,3.89.7,16.05,16.05,0,0,0,1.79-.11c.62-.08,1.24-.19,1.85-.33a13.86,13.86,0,0,0,1.72-.53Zm-11.26-7.34a6.64,6.64,0,0,1,.37-2.2,6.81,6.81,0,0,1,1.08-2,5.52,5.52,0,0,1,1.71-1.44,4.73,4.73,0,0,1,2.27-.54,4.09,4.09,0,0,1,3.63,1.91,6.23,6.23,0,0,1,.82,2,9.93,9.93,0,0,1,.25,2.27ZM328.6,127h-4.2v-5l-2.28.76V127H318.5v1.88h3.62V139.3a21,21,0,0,0,.09,2.29,5.41,5.41,0,0,0,.49,1.88,2.84,2.84,0,0,0,1.25,1.27,5.06,5.06,0,0,0,2.37.47,7.91,7.91,0,0,0,1.1-.08,8.52,8.52,0,0,0,1-.19,6.17,6.17,0,0,0,.71-.22l-.15-1.81a8.41,8.41,0,0,1-1,.31,5.31,5.31,0,0,1-1.12.11,2.49,2.49,0,0,1-1.47-.4,2.16,2.16,0,0,1-.77-1.05,4.28,4.28,0,0,1-.23-1.47V128.92h4.2Zm18.51,0h-2.29v9.82a9.32,9.32,0,0,1-.17,1.81,7.35,7.35,0,0,1-.55,1.74,5.53,5.53,0,0,1-1,1.5,4.38,4.38,0,0,1-1.56,1,5.52,5.52,0,0,1-2.16.39,4.36,4.36,0,0,1-2.54-.68,3.86,3.86,0,0,1-1.41-1.9,8.36,8.36,0,0,1-.43-2.92V127h-2.29v11.35a10.1,10.1,0,0,0,.35,2.71,5.8,5.8,0,0,0,1.09,2.16,4.91,4.91,0,0,0,1.95,1.43,7.46,7.46,0,0,0,2.91.52,7.67,7.67,0,0,0,2.45-.34,5.23,5.23,0,0,0,2.81-2,8.89,8.89,0,0,0,.72-1.23H345v3.16h2.21c-.07-.71-.11-1.42-.13-2.11s0-1.39,0-2.06Zm5.71,17.75h2.29v-26.1h-2.29ZM375.27,127H373v9.82a10.17,10.17,0,0,1-.17,1.81,6.94,6.94,0,0,1-.56,1.74,5.28,5.28,0,0,1-1,1.5,4.47,4.47,0,0,1-1.56,1,5.53,5.53,0,0,1-2.17.39,4.33,4.33,0,0,1-2.53-.68,3.8,3.8,0,0,1-1.41-1.9,8.35,8.35,0,0,1-.44-2.92V127h-2.28v11.35a9.71,9.71,0,0,0,.35,2.71,5.65,5.65,0,0,0,1.09,2.16,4.91,4.91,0,0,0,1.95,1.43,7.46,7.46,0,0,0,2.91.52,7.6,7.6,0,0,0,2.44-.34,5.2,5.2,0,0,0,2.82-2,8.89,8.89,0,0,0,.72-1.23h.07v3.16h2.2c-.06-.71-.1-1.42-.12-2.11s0-1.39,0-2.06Zm4.09,17.33a12.33,12.33,0,0,0,2.54.66,17.83,17.83,0,0,0,2.64.18,9.74,9.74,0,0,0,1.75-.16,7.63,7.63,0,0,0,1.72-.54,5.28,5.28,0,0,0,1.51-.95,4.21,4.21,0,0,0,1.06-1.43,4.65,4.65,0,0,0,.4-2,4.42,4.42,0,0,0-.5-2.14,5.35,5.35,0,0,0-1.3-1.55,10.06,10.06,0,0,0-1.77-1.13c-.65-.32-1.29-.62-1.93-.89s-1.24-.56-1.78-.84a4.77,4.77,0,0,1-1.3-.93,1.71,1.71,0,0,1-.5-1.21,2.54,2.54,0,0,1,1.9-2.71,6.9,6.9,0,0,1,2.08-.25,11,11,0,0,1,1.36.09,11.92,11.92,0,0,1,1.42.29,9.14,9.14,0,0,1,1.31.45l.22-1.92a12.42,12.42,0,0,0-1.69-.46,15.46,15.46,0,0,0-1.62-.26c-.5,0-.92-.07-1.25-.07a9.14,9.14,0,0,0-2.23.26,5.73,5.73,0,0,0-1.92.84,4.12,4.12,0,0,0-1.35,1.49,4.73,4.73,0,0,0-.51,2.25,3.58,3.58,0,0,0,.49,1.88,4.81,4.81,0,0,0,1.27,1.36,12.51,12.51,0,0,0,1.73,1c.63.29,1.25.58,1.89.86a15.55,15.55,0,0,1,1.73.91,4.38,4.38,0,0,1,1.27,1.13,2.56,2.56,0,0,1,.49,1.53,2.87,2.87,0,0,1-1.23,2.35,4.64,4.64,0,0,1-1.31.61,5.6,5.6,0,0,1-1.56.21,10.6,10.6,0,0,1-2.55-.31,11.57,11.57,0,0,1-2.26-.8Zm26.1.42H408V133.34h12.78v11.45h2.5V120.5h-2.5v10.76H408V120.5h-2.5Z"/></g><path class="cls-2" d="M439.9,144.79h2.24c-.06-.4-.1-.8-.13-1.18s0-.8,0-1.21,0-.86,0-1.33v-7.83a8.88,8.88,0,0,0-.66-3.77,4.39,4.39,0,0,0-2.11-2.16,8.48,8.48,0,0,0-3.71-.68,10.89,10.89,0,0,0-1.34.09c-.48.07-1,.16-1.45.27s-1,.24-1.43.38a11,11,0,0,0-1.21.47V130a9.52,9.52,0,0,1,2.64-1.13,11.22,11.22,0,0,1,2.79-.33,5.12,5.12,0,0,1,2.46.5,3,3,0,0,1,1.34,1.52,6.74,6.74,0,0,1,.4,2.54v.9h-.43c-.81,0-1.64,0-2.5.05s-1.73.12-2.57.24a13.7,13.7,0,0,0-2.41.59,6.75,6.75,0,0,0-2,1.09,4.69,4.69,0,0,0-1.38,1.73,5.74,5.74,0,0,0-.51,2.53,4.91,4.91,0,0,0,.12,1.14,5.17,5.17,0,0,0,.5,1.31,4.7,4.7,0,0,0,1.05,1.26,5.24,5.24,0,0,0,1.76.94,8.79,8.79,0,0,0,2.65.36,7.52,7.52,0,0,0,1.74-.21,7.17,7.17,0,0,0,1.67-.63,6.07,6.07,0,0,0,1.44-1,4.73,4.73,0,0,0,1-1.41h.08Zm-.22-7.86c0,.39,0,.86-.05,1.39a8.13,8.13,0,0,1-.33,1.69,5,5,0,0,1-.84,1.62,4.33,4.33,0,0,1-1.62,1.22,6.54,6.54,0,0,1-2.63.48,5.43,5.43,0,0,1-1.93-.31,2.83,2.83,0,0,1-1.37-1,3.14,3.14,0,0,1-.54-1.87,3.69,3.69,0,0,1,.52-1.95,3.88,3.88,0,0,1,1.39-1.24,7.87,7.87,0,0,1,2-.71,17,17,0,0,1,2.34-.31c.81,0,1.61-.08,2.41-.07h.65ZM455.36,127h-4.2v-5l-2.28.76V127h-3.62v1.88h3.62V139.3a21.06,21.06,0,0,0,.08,2.29,5.89,5.89,0,0,0,.49,1.88,2.91,2.91,0,0,0,1.26,1.27,5,5,0,0,0,2.37.47,8.85,8.85,0,0,0,2.07-.27,6.41,6.41,0,0,0,.72-.22l-.15-1.81a8.41,8.41,0,0,1-1,.31,5.41,5.41,0,0,1-1.13.11,2.45,2.45,0,0,1-1.46-.4,2.1,2.1,0,0,1-.77-1.05,4.05,4.05,0,0,1-.23-1.47V128.92h4.2Zm4.09,17.75h2.28V127h-2.28Zm2.28-25.41h-2.28v2.93h2.28Z"/><path class="cls-2" d="M300.3,28.62H315V49.74l18.39-21.12H351L330.83,51.11l21.08,26H333.24L315,54.44V77.15H300.3Zm-58.46,0h20.33l17.6,35.86V28.62h13V77.15h-20.4L254.84,40.76V77.15h-13Zm-43.1,0h18.84L239.5,77.15H221.9l-3.7-10.57H196.35l-3.63,10.57H176.28ZM214,58.18l-6.64-19.57L200,58.18ZM130.8,28.62h23.91l4.15.2a28.66,28.66,0,0,1,5.85.94,20.11,20.11,0,0,1,7.21,3.49q3.3,2.47,3.74,7.57v.24a.65.65,0,0,0,.07.23v.47a8.9,8.9,0,0,1-3.18,6.87A13.94,13.94,0,0,1,164,51.88a.16.16,0,0,1,.11,0,.14.14,0,0,0,.11,0,26.83,26.83,0,0,1,8.66,3.89q3.93,2.67,3.93,8.17,0,7.11-5.59,10.13t-16.55,3H130.8Zm15.18,39h8.14a7.88,7.88,0,0,0,4.89-1.1A4.92,4.92,0,0,0,160.93,64a3.61,3.61,0,0,0,.11-.51,2.6,2.6,0,0,0,0-.5,4.11,4.11,0,0,0-.08-.84,3,3,0,0,0-.29-.9,5.88,5.88,0,0,0-2-2.38,6.46,6.46,0,0,0-4-1.11L146,57.65Zm0-20h7.55q3.48.07,5-1.14A4.3,4.3,0,0,0,160,42.9a4.25,4.25,0,0,0-1.7-3.35,7.24,7.24,0,0,0-4.74-1.41L146,38.07Z"/><g class="cls-4"><path class="cls-2" d="M489.4,28.62h15.3V77.15H489.4Zm-55.47,0H458a3.56,3.56,0,0,0,.71.07h.7a39.85,39.85,0,0,1,14,2.62q6.34,2.48,6.35,10.05,0,5.89-3.81,8.61a20.84,20.84,0,0,1-9.11,3.52q8,.27,9.89,4.83c2.6,6.22,4.88,12.78,7.37,18.83H467.69c-2.17-4.38-4.1-10.53-5.85-15.22q-1.18-3.21-5.6-3.21l-7-.07v18.5h-15.3Zm15.3,10V49.2h5.9a4.49,4.49,0,0,0,.71.07h.71a14.36,14.36,0,0,0,5.07-1.14q2.31-1,2.31-4.16a4.25,4.25,0,0,0-2.38-4,12.44,12.44,0,0,0-5.9-1.27Zm-68.74-10H404.6l4.18.2a28.92,28.92,0,0,1,5.89.94A20.34,20.34,0,0,1,422,33.25c2.22,1.65,3.47,4.17,3.77,7.57v.24a.65.65,0,0,0,.07.23v.47a8.84,8.84,0,0,1-3.21,6.87A14.07,14.07,0,0,1,414,51.88a.16.16,0,0,1,.11,0,.16.16,0,0,0,.12,0A27.3,27.3,0,0,1,423,55.84q3.94,2.67,4,8.17,0,7.11-5.63,10.13t-16.68,3H380.49Zm15.3,39H404a7.94,7.94,0,0,0,4.92-1.1A4.89,4.89,0,0,0,410.87,64a3.61,3.61,0,0,0,.11-.51,3.84,3.84,0,0,0,0-.5,4.92,4.92,0,0,0-.07-.84,3.4,3.4,0,0,0-.3-.9,5.88,5.88,0,0,0-2-2.38,6.61,6.61,0,0,0-4.07-1.11l-8.81-.06Zm0-20h7.61q3.51.07,5-1.14a4.31,4.31,0,0,0,1.49-3.55,4.21,4.21,0,0,0-1.72-3.35,7.32,7.32,0,0,0-4.78-1.41l-7.61-.07Z"/></g></g></g></g></svg>