<?xml version="1.0" encoding="utf-8"?>
<!-- Generator: Adobe Illustrator 23.0.5, SVG Export Plug-In . SVG Version: 6.00 Build 0)  -->
<svg version="1.1" id="Capa_1" xmlns="http://www.w3.org/2000/svg" xmlns:xlink="http://www.w3.org/1999/xlink" x="0px" y="0px"
	 viewBox="0 0 490 490" style="enable-background:new 0 0 490 490;" xml:space="preserve">
<style type="text/css">
	.st0{fill:#FFFFFF;}
</style>
<g>
	<g>
		<path class="st0" d="M469.2,0.5H20.8C9.4,0.5,0,9.9,0,21.3v166.5c0,11.4,9.4,20.8,20.8,20.8s20.8-9.4,20.8-20.8V41.1h406.8v145.6
			c0,11.4,9.4,20.8,20.8,20.8s20.8-8.3,20.8-19.8V21.3C490,9.9,480.6,0.5,469.2,0.5z"/>
		<path class="st0" d="M397.4,92.1c-1-10.4-9.4-17.7-19.8-17.7H112.4c-9.4,0-18.7,7.3-19.8,17.7L45.8,466.6
			c0,20.1,14.6,22.9,20.8,22.9H425c0.1,0,0.5,0,0.5,0c18.4,0,20.3-19.8,18.7-26L397.4,92.1z M89.5,448.9L131.1,115H360l41.6,333.9
			H89.5z"/>
		<path class="st0" d="M245,265.8c-11.3,0-20.4-9.2-20.4-20.4c0-11.3,9.2-20.4,20.4-20.4c5.7,0,11,2.3,14.9,6.4
			c5.9,6.3,15.9,6.6,22.2,0.7c6.3-5.9,6.6-15.9,0.7-22.2c-6.1-6.5-13.7-11.2-22-13.8V187c0-8.7-7-15.7-15.7-15.7s-15.7,7-15.7,15.7
			v9.1c-20.9,6.7-36.1,26.3-36.1,49.3c0,28.5,23.2,51.8,51.8,51.8c11.3,0,20.4,9.2,20.4,20.4c0,11.3-9.2,20.4-20.4,20.4
			c-5.7,0-11-2.3-14.9-6.4c-5.9-6.3-15.9-6.6-22.2-0.7s-6.6,15.9-0.7,22.2c6.1,6.5,13.7,11.2,22,13.8v9.1c0,8.7,7,15.7,15.7,15.7
			s15.7-7,15.7-15.7v-9.1c20.9-6.7,36.1-26.3,36.1-49.3C296.8,289,273.5,265.8,245,265.8z"/>
	</g>
</g>
</svg>
