<?xml version="1.0" encoding="iso-8859-1"?>
<!-- Generator: Adobe Illustrator 18.0.0, SVG Export Plug-In . SVG Version: 6.00 Build 0)  -->
<!DOCTYPE svg PUBLIC "-//W3C//DTD SVG 1.1//EN" "http://www.w3.org/Graphics/SVG/1.1/DTD/svg11.dtd">
<svg version="1.1" id="Capa_1" xmlns="http://www.w3.org/2000/svg" xmlns:xlink="http://www.w3.org/1999/xlink" x="0px" y="0px"
	 viewBox="0 0 113.882 113.882" style="enable-background:new 0 0 113.882 113.882;" xml:space="preserve">
<g>
	<path style="fill:#231F20;" d="M94.002,65.419h-4.335V78.36h4.335c2.637,0,3.669-2.671,3.669-6.396
		C97.671,66.916,96.292,65.419,94.002,65.419z"/>
	<path style="fill:#231F20;" d="M113.882,66.125V53.346H0v12.779c3.532,0,6.395,2.864,6.395,6.396c0,3.532-2.863,6.396-6.395,6.396
		v12.78h113.882v-12.78c-3.532,0-6.396-2.863-6.396-6.396C107.486,68.989,110.35,66.125,113.882,66.125z M25.933,65.617
		c-0.024,0-3.345-0.311-5.734-0.311c-2.759,0-3.794,0.889-3.794,6.607c0,4.089,0.766,6.557,3.803,6.557
		c2.618,0,5.726-0.191,5.726-0.191v2.273c-1.676,0.438-4.124,0.662-6.258,0.636c-4.612-0.026-6.162-3.693-6.162-9.324
		c0-5.835,1.2-9.275,6.162-9.275c2.1,0,4.373,0.264,6.258,0.754V65.617z M39.547,81.039h-7.542c-1.863,0-3.652-0.586-3.652-3.403
		V62.788h2.892v14.236c0,1.322,0.823,1.297,1.546,1.297h6.757V81.039z M48.152,81.139c-4.488,0-7.247-0.798-7.247-9.101
		c0-8.552,3.059-9.375,7.247-9.375c4.313,0,7.214,0.823,7.214,9.375C55.366,80.092,52.641,81.139,48.152,81.139z M70.013,76.626
		c0,3.925-2.576,4.612-5.045,4.612c-2.426,0-5.13-0.275-6.748-0.701v-2.29c0.997,0.1,3.993,0.273,6.311,0.273
		c1.04,0,2.59-0.128,2.59-1.816v-1.241c0-1.177-0.354-1.973-1.792-1.973h-3.054c-4.251,0-4.613-2.865-4.613-4.637v-1.603
		c0-3.615,2.145-4.586,4.938-4.612c2.15-0.035,5.495,0.36,6.756,0.677v2.29c-1.596-0.126-5.569-0.249-6.146-0.249
		c-1.605-0.049-2.655,0.082-2.655,2.069v1.166c0,1.745,0.733,2.007,2.177,2.007h3.121c3.482,0,4.16,2.61,4.16,4.638V76.626z
		 M84.233,65.55h-7.451c-1.296,0-1.296,0.723-1.296,1.396v3.626l7.663,0.258v2.361l-7.663,0.24v3.625
		c0.016,1.322,0.822,1.297,1.546,1.297h7.201v2.338c-0.898,0.122-7.726,0.424-7.726,0.424c-1.634,0.082-3.914-0.307-3.914-3.474
		V66.379c0-2.904,1.963-3.64,3.665-3.591c0,0,6.954,0.26,7.975,0.399V65.55z M94.177,81.039h-7.401V62.788h7.401
		c5.383,0,6.387,4.963,6.387,9.2C100.563,76.913,98.762,81.039,94.177,81.039z"/>
	<path style="fill:#231F20;" d="M48.152,65.381c-2.924,0-4.354,0.25-4.354,6.657c0,5.5,0.938,6.383,4.354,6.383
		c3.278,0,4.322-0.994,4.322-6.383C52.475,65.709,51.15,65.381,48.152,65.381z"/>
	<path style="fill:#FFFFFF;" d="M13.513,71.864c0,5.631,1.55,9.298,6.162,9.324c2.134,0.026,4.582-0.198,6.258-0.636v-2.273
		c0,0-3.107,0.191-5.726,0.191c-3.037,0-3.803-2.468-3.803-6.557c0-5.719,1.035-6.607,3.794-6.607c2.39,0,5.71,0.311,5.734,0.311
		v-2.274c-1.885-0.49-4.158-0.754-6.258-0.754C14.713,62.589,13.513,66.029,13.513,71.864z"/>
	<path style="fill:#FFFFFF;" d="M31.244,77.024V62.788h-2.892v14.848c0,2.817,1.789,3.403,3.652,3.403h7.542v-2.718H32.79
		C32.067,78.321,31.244,78.347,31.244,77.024z"/>
	<path style="fill:#FFFFFF;" d="M48.152,62.663c-4.188,0-7.247,0.823-7.247,9.375c0,8.303,2.759,9.101,7.247,9.101
		c4.488,0,7.214-1.047,7.214-9.101C55.366,63.486,52.466,62.663,48.152,62.663z M48.152,78.421c-3.416,0-4.354-0.883-4.354-6.383
		c0-6.407,1.431-6.657,4.354-6.657c2.998,0,4.322,0.328,4.322,6.657C52.475,77.427,51.431,78.421,48.152,78.421z"/>
	<path style="fill:#FFFFFF;" d="M65.853,70.599h-3.121c-1.443,0-2.177-0.262-2.177-2.007v-1.166c0-1.987,1.05-2.118,2.655-2.069
		c0.576,0,4.55,0.123,6.146,0.249v-2.29c-1.261-0.316-4.605-0.712-6.756-0.677c-2.793,0.026-4.938,0.997-4.938,4.612v1.603
		c0,1.771,0.362,4.637,4.613,4.637h3.054c1.438,0,1.792,0.796,1.792,1.973v1.241c0,1.688-1.55,1.816-2.59,1.816
		c-2.318,0-5.314-0.174-6.311-0.273v2.29c1.618,0.426,4.322,0.701,6.748,0.701c2.469,0,5.045-0.688,5.045-4.612v-1.39
		C70.013,73.209,69.335,70.599,65.853,70.599z"/>
	<path style="fill:#FFFFFF;" d="M72.594,66.379v11.262c0,3.167,2.28,3.556,3.914,3.474c0,0,6.827-0.302,7.726-0.424v-2.338h-7.201
		c-0.724,0-1.53,0.025-1.546-1.297v-3.625l7.663-0.24v-2.361l-7.663-0.258v-3.626c0-0.673,0-1.396,1.296-1.396h7.451v-2.362
		c-1.021-0.14-7.975-0.399-7.975-0.399C74.557,62.739,72.594,63.475,72.594,66.379z"/>
	<path style="fill:#FFFFFF;" d="M94.177,62.788h-7.401v18.251h7.401c4.585,0,6.387-4.126,6.387-9.051
		C100.563,67.751,99.56,62.788,94.177,62.788z M94.002,78.36h-4.335V65.419h4.335c2.29,0,3.669,1.497,3.669,6.545
		C97.671,75.689,96.639,78.36,94.002,78.36z"/>
	<circle style="fill:#231F20;" cx="56.941" cy="28.055" r="5.869"/>
	<path style="fill:#231F20;" d="M59.258,36.125l13.725,14.193h7.142L63.338,32.96C62.396,34.441,60.96,35.577,59.258,36.125z"/>
	<path style="fill:#231F20;" d="M54.624,36.125c-1.702-0.548-3.139-1.684-4.08-3.165L33.759,50.318H40.9L54.624,36.125z"/>
</g>
<g>
</g>
<g>
</g>
<g>
</g>
<g>
</g>
<g>
</g>
<g>
</g>
<g>
</g>
<g>
</g>
<g>
</g>
<g>
</g>
<g>
</g>
<g>
</g>
<g>
</g>
<g>
</g>
<g>
</g>
</svg>
