<svg xmlns="http://www.w3.org/2000/svg" viewBox="0 0 512 512"><defs><style>.cls-1{fill:#21bf73;}.cls-2{fill:#fff;}.cls-3{opacity:0.1;isolation:isolate;}</style></defs><title>down-icon</title><g id="Layer_2" data-name="Layer 2"><g id="Layer_1-2" data-name="Layer 1"><path class="cls-1" d="M512,256C512,114.61,397.39,0,256,0S0,114.61,0,256,114.61,512,256,512,512,397.39,512,256Z"/><path class="cls-2" d="M353.19,120l-93.12,48.31a8.8,8.8,0,0,1-8.14,0L158.82,120a8.85,8.85,0,0,0-12.31,11.1L247.77,387.47a8.85,8.85,0,0,0,16.46,0L365.49,131.06A8.85,8.85,0,0,0,353.19,120Z"/><path class="cls-3" d="M68.87,256c0-129.7,96.47-236.86,221.57-253.69A259.17,259.17,0,0,0,256,0C114.61,0,0,114.61,0,256S114.61,512,256,512a259.17,259.17,0,0,0,34.44-2.31C165.34,492.86,68.87,385.7,68.87,256Z"/></g></g></svg>