<svg xmlns="http://www.w3.org/2000/svg" viewBox="0 0 489.1 142.47"><defs><style>.cls-1{fill:#003d79;}.cls-2{fill:#ffb700;}</style></defs><title>mandiri</title><g id="Layer_2" data-name="Layer 2"><g id="Layer_1-2" data-name="Layer 1"><path class="cls-1" d="M.51,97.9c0-7.08-.13-13-.51-18.3H13.38L14,88.69h.37A21.26,21.26,0,0,1,33.33,78.21a17.74,17.74,0,0,1,17,11.36h.26a23.19,23.19,0,0,1,7.56-7.69,20.51,20.51,0,0,1,12.38-3.67c10.23,0,20.57,6.94,20.57,26.64v36.22H76v-34c0-10.21-3.53-16.29-11-16.29-5.3,0-9.22,3.8-10.85,8.22a22,22,0,0,0-.76,5.17v36.87H38.25V105.47c0-8.57-3.41-14.64-10.61-14.64-5.79,0-9.7,4.55-11.11,8.84a13.5,13.5,0,0,0-.88,5v36.37H.51V97.9Zm149.65,28.41a100.23,100.23,0,0,0,.88,14.77H137l-1-6.81h-.38c-3.79,4.8-10.23,8.19-18.17,8.19-12.37,0-19.32-9-19.32-18.3,0-15.54,13.75-23.35,36.49-23.23v-1c0-4-1.65-10.73-12.51-10.73a32.62,32.62,0,0,0-16.53,4.54l-3-10.1c4.54-2.78,12.5-5.43,22.21-5.43,19.7,0,25.39,12.51,25.39,25.88v22.23ZM135,111c-11-.26-21.46,2.14-21.46,11.49,0,6.05,3.92,8.84,8.84,8.84a12.61,12.61,0,0,0,12.12-8.47,11.2,11.2,0,0,0,.5-3.4V111ZM160.89,97.9c0-7.08-.13-13-.5-18.3H174l.75,9.23h.39c2.64-4.81,9.34-10.62,19.56-10.62,10.74,0,21.84,6.94,21.84,26.39v36.47H201v-34.7c0-8.84-3.28-15.55-11.74-15.55-6.17,0-10.48,4.42-12.12,9.1a15.9,15.9,0,0,0-.63,5v36.11H160.88V97.9Zm123-43v68.88c0,6.32.26,13.15.51,17.3H270.5l-.63-9.71h-.26c-3.66,6.81-11.11,11.1-20.07,11.1-14.65,0-26.25-12.5-26.25-31.42-.14-20.59,12.73-32.84,27.52-32.84,8.45,0,14.51,3.54,17.29,8.1h.26V54.91h15.51Zm-15.52,50.32a21.4,21.4,0,0,0-.38-4c-1.39-6-6.3-11-13.37-11-10,0-15.54,8.84-15.54,20.32,0,11.23,5.56,19.44,15.41,19.44a13.7,13.7,0,0,0,13.37-11,16.8,16.8,0,0,0,.52-4.54v-9.22Zm26.51,35.86V79.6h15.66v61.48Zm26.63-41.66c0-8.33-.12-14.27-.49-19.81h13.5l.5,11.73h.51c3-8.71,10.22-11.73,16.8-11.73a17.08,17.08,0,0,1,3.65,0V93.25a21.64,21.64,0,0,0-4.54-.51c-7.46,0-12.51,4.8-13.89,11.73a27.84,27.84,0,0,0-.5,4.81v31.8H321.49V99.42Zm41.67,41.66V79.6h15.65v61.48Z"/><path class="cls-2" d="M476.25,14.58c-7.75-8.84-16-4.84-22.54-1.59-2.76,1.37-22.64,12.63-22.64,12.63-10.89,4.5-19.37-.41-22.7-4.53a10.54,10.54,0,0,1-.86-1.24l-.77-1.35A60.27,60.27,0,0,0,402.37,12a35.49,35.49,0,0,0-3.13-3.58C391.79.87,379.87-4.4,360,5.17c-9.43,5.46-40.14,23-40.14,23-11.53,4.75-20.36-1-23.23-5.28a3.42,3.42,0,0,1-.33-.51l-.38-.64L294,18.57q-1.32-2.1-2.83-4.06A39.3,39.3,0,0,0,288,10.94c-7.4-7.48-19.25-12.74-39-3.35-11.94,6.81-39.69,22.68-39.69,22.68h0L189,41.89l10.52,12.9c4.42,4.22,12.73,11.13,25.59,5.3,0,0,35.5-20.55,35.64-20.62,30.34-16.65,45.32-.74,51.94,9.87.23.33.41.69.62,1v0a3.47,3.47,0,0,1,.21.37l.75,1.22c3.23,4.89,8.31,8,14.38,7.91,3.34-.07,5.61-1.16,8.92-3L371.9,37l.07,0c30.73-16.86,46,.09,52.46,10.7a27.63,27.63,0,0,0,1.67,2.61c3.22,4.36,7.66,7.22,13.3,7.08a20.12,20.12,0,0,0,8.53-2.72L489.1,30.83a169.42,169.42,0,0,0-12.85-16.25Z"/></g></g></svg>