<?xml version="1.0" encoding="utf-8"?>
<!-- Generator: Adobe Illustrator 23.0.5, SVG Export Plug-In . SVG Version: 6.00 Build 0)  -->
<svg version="1.1" id="Layer_1" xmlns="http://www.w3.org/2000/svg" xmlns:xlink="http://www.w3.org/1999/xlink" x="0px" y="0px"
	 viewBox="0 0 383.7 383.7" style="enable-background:new 0 0 383.7 383.7;" xml:space="preserve">
<style type="text/css">
	.st0{fill:#FFFFFF;}
</style>
<g>
	<path class="st0" d="M62.8,95c28.1-40.1,74.7-65,124.6-65c83.7,0,151.9,68.1,151.9,151.9h30C369.2,81.6,287.6,0,187.3,0
		c-35,0-69.1,10-98.4,28.9C70.4,40.9,54.2,56,41.2,73.6l-39.1-39V148H116L62.8,95z"/>
	<path class="st0" d="M381.7,235.7H267.8l53.2,53c-28.1,40.1-74.7,65-124.6,65c-83.7,0-151.9-68.1-151.9-151.9h-30
		c0,100.3,81.6,181.9,181.9,181.9c35,0,69.1-10,98.4-28.9c18.6-12,34.7-27.1,47.7-44.7l39.1,39L381.7,235.7L381.7,235.7z"/>
</g>
</svg>
