<svg xmlns="http://www.w3.org/2000/svg" viewBox="0 0 514 514"><defs><style>.cls-1{fill:#fff;}</style></defs><title>trash-icon</title><g id="Layer_2" data-name="Layer 2"><g id="Layer_1-2" data-name="Layer 1"><path class="cls-1" d="M257,0q-12,0-23.67,1.1h47.34Q269,0,257,0Z"/><path class="cls-1" d="M514,257q0-12.33-1.16-24.38v48.76Q514,269.34,514,257Z"/><path class="cls-1" d="M257,514c7.62,0,15.15-.35,22.6-1H234.4C241.85,513.65,249.38,514,257,514Z"/><path class="cls-1" d="M0,257c0,7.74.36,15.4,1,23V234C.36,241.6,0,249.26,0,257Z"/><path d="M512.84,281.38V232.62C501.29,109.91,403.48,12.31,280.67,1.1H233.33C110.05,12.36,12,110.66,1,234V280C12,403.7,110.62,502.21,234.4,513h45.2C402.91,502.26,501.26,404.45,512.84,281.38ZM392.25,166.27a15.43,15.43,0,0,1-14.08,7c-2.79-.1-5.59,0-9.1,0v6.76q0,108,0,215.93c0,14.87-7.32,25.43-20,28.6a35.15,35.15,0,0,1-8.41.68c-55.65,0-111.3-.31-167,.24-15.59.15-28.81-10.88-28.76-28.73.12-45.48,0-91,0-136.45v-87c-3.53,0-6.17,0-8.82,0-10-.07-17.31-6.83-17.31-16.08,0-9.1,7.38-16.13,17.37-16.2,15.16-.12,30.32,0,45.49,0,6.53,0,6.53,0,6.64-6.55.39-21.64,10-37,27.41-43.28a39.9,39.9,0,0,1,12.66-2.31c19-.24,38-.2,57-.08,20.73.13,38.64,17.22,39.94,37.9.12,1.83.28,3.66.35,5.49.34,8.8.34,8.81,9.39,8.82,14.32,0,28.65-.07,43,0,6.84.05,12.2,2.89,15.4,9.21C396.26,155.82,395.7,161.23,392.25,166.27Z"/><path d="M213.59,203.1c-1.49-3.88-4.57-5.95-8.9-6-4.53-.06-7.76,2-9.34,6.1a19.47,19.47,0,0,0-1,6.82q-.09,39.71,0,79.42,0,39.46,0,78.92c0,9.15,3.76,14.38,10.27,14.31s10.17-5.17,10.17-14.42q0-78.92-.05-157.84A20.62,20.62,0,0,0,213.59,203.1Z"/><path d="M307.92,197.19c-5.4.63-8.62,5.05-8.62,12.09q0,48.21,0,96.41,0,32.22,0,64.44c0,7.53,4,12.38,10,12.53s10.31-4.92,10.39-12.68c0-.83,0-1.67,0-2.5V262.58c0-18,0-36,0-53.95C319.65,200.84,314.91,196.37,307.92,197.19Z"/><path d="M266.89,208c0-7.55-4.72-11.75-11.65-10.78-5.19.72-8.14,4.68-8.15,11.32q-.06,43.5,0,87c0,25.17.06,50.33,0,75.5,0,4.34,1.11,7.9,5,10.14,7.15,4.11,14.83-.81,14.86-9.67.07-27.17,0-54.33,0-81.5C266.92,262.67,267,235.34,266.89,208Z"/><path d="M284.16,121.13c-18.14-.08-36.28,0-54.42,0-5,0-7.7,2.78-8.56,7.38-.48,2.59-.25,5.31-.49,7.95-.3,3.48,1.18,4.64,4.64,4.58,10.48-.17,21-.06,31.45-.06q13.47,0,27,0c10.38,0,10.7-.41,9.36-11.09C292.39,124.23,289.45,121.16,284.16,121.13Z"/></g></g></svg>