<svg xmlns="http://www.w3.org/2000/svg" viewBox="0 0 419.87 419.87"><title>tunai</title><g id="Layer_2" data-name="Layer 2"><g id="Layer_1-2" data-name="Layer 1"><g id="Outline"><g id="Outline-2"><path d="M140,274.26V223.13h28.18L208,278.36a7,7,0,0,0,11.35-8.19l-35.25-48.8a45.73,45.73,0,0,0-12.41-89.75H133a7,7,0,0,0-7,7V274.26a7,7,0,1,0,14,0Zm63.52-96.89a31.8,31.8,0,0,1-31.77,31.76H140V145.61h31.75A31.81,31.81,0,0,1,203.48,177.37Z"/><path d="M249.23,170.37a7,7,0,0,0-7,7v96.89a7,7,0,0,0,14,0V242.5h15.61a36.07,36.07,0,0,0,0-72.13H249.23Zm44.68,36.07a22.11,22.11,0,0,1-22.07,22.07H256.23V184.37h15.61A22.09,22.09,0,0,1,293.91,206.44Z"/><path d="M209.94,0C94,0,0,94,0,209.94S94,419.87,209.94,419.87s209.93-94,209.93-209.93S325.82.13,209.94,0Zm0,405.87C101.72,405.87,14,318.15,14,209.94S101.72,14,209.94,14s195.93,87.72,195.93,195.94S318.1,405.75,209.94,405.87Z"/><path d="M333.48,103.52a22.2,22.2,0,1,0-22.2,22.2,21.88,21.88,0,0,0,8.84-1.87,139.92,139.92,0,0,1-175.33,210,7,7,0,1,0-6.9,12.17l.39.21A153.86,153.86,0,0,0,330.5,114.42,21.87,21.87,0,0,0,333.48,103.52Zm-30.4,0a8.21,8.21,0,1,1,8.2,8.2h0A8.2,8.2,0,0,1,303.08,103.52Z"/><path d="M103.52,294.15a21.85,21.85,0,0,0-4.84.57A138.34,138.34,0,0,1,70,209.94a140.12,140.12,0,0,1,140-140,138.54,138.54,0,0,1,59.22,13.11,7,7,0,1,0,5.93-12.68A153.88,153.88,0,0,0,86.7,302a22,22,0,0,0-5.38,14.32,22.21,22.21,0,1,0,22.21-22.2Zm0,30.4a8.2,8.2,0,1,1,8.21-8.2,8.21,8.21,0,0,1-8.21,8.2Z"/></g></g></g></g></svg>