<svg xmlns="http://www.w3.org/2000/svg" viewBox="0 0 512 512"><defs><style>.cls-1{fill:#fd5e53;}.cls-2{fill:#fff;}.cls-3{opacity:0.1;isolation:isolate;}</style></defs><title>up-icon</title><g id="Layer_2" data-name="Layer 2"><g id="Layer_1-2" data-name="Layer 1"><path class="cls-1" d="M512,256C512,114.61,397.39,0,256,0S0,114.61,0,256,114.61,512,256,512,512,397.39,512,256Z"/><path class="cls-2" d="M158.82,392l93.11-48.31a8.86,8.86,0,0,1,8.14,0L353.18,392a8.85,8.85,0,0,0,12.31-11.1L264.23,124.53a8.85,8.85,0,0,0-16.46,0L146.51,380.94A8.85,8.85,0,0,0,158.82,392Z"/><path class="cls-3" d="M68.87,256c0-129.7,96.47-236.86,221.57-253.69A259.17,259.17,0,0,0,256,0C114.61,0,0,114.61,0,256S114.61,512,256,512a259.17,259.17,0,0,0,34.44-2.31C165.34,492.86,68.87,385.7,68.87,256Z"/></g></g></svg>